<?xml version="1.0" encoding="UTF-8"?>
<svg id="Layer_2" data-name="Layer 2" xmlns="http://www.w3.org/2000/svg" viewBox="0 0 138.64 176.84">
  <defs>
    <style>
      .cls-1 {
        fill: #533ed6;
      }

      .cls-2 {
        fill: #050505;
      }

      .cls-3 {
        fill: none;
        stroke: #533ed6;
        stroke-miterlimit: 10;
        stroke-width: 10px;
      }
    </style>
  </defs>
  <g id="Layer_1-2" data-name="Layer 1">
    <g id="ant_dance1">
      <line class="cls-3" x1="69.11" y1="30.91" x2="96.48" y2="3.54"/>
      <circle class="cls-1" cx="69.67" cy="122.06" r="22.51"/>
      <circle class="cls-1" cx="69.67" cy="77.04" r="22.51"/>
      <circle class="cls-1" cx="69.67" cy="32.02" r="22.51"/>
      <rect class="cls-1" x="51.21" y="140.11" width="10" height="36.74"/>
      <rect class="cls-1" x="89.25" y="135.27" width="10" height="30.96" transform="translate(-80.01 115.52) rotate(-46.56)"/>
      <path class="cls-1" d="M36.6,131.48c-8.31-11.03-11.36-20.57-9.32-29.16,1.82-7.7,7.77-14.09,17.67-18.99l4.44,8.96c-7.11,3.52-11.27,7.67-12.38,12.33-1.29,5.44,1.26,12.45,7.58,20.83l-7.99,6.02Z"/>
      <path class="cls-1" d="M8.67,78.17l-8.67-4.98c5.22-9.08,11.66-14.43,19.13-15.9,7.98-1.57,16.87,1.41,26.4,8.83l-6.15,7.89c-7.15-5.57-13.32-7.89-18.33-6.91-4.5.88-8.67,4.61-12.39,11.07Z"/>
      <path class="cls-1" d="M120.4,113.55c-8.8-24.12-19.08-23.91-27.05-21.04l-3.39-9.41c21.9-7.89,33.75,10.33,39.84,27.02l-9.39,3.43Z"/>
      <path class="cls-1" d="M131,75.65c-6.35-7.52-12.16-11.33-17.28-11.33-.08,0-.15,0-.23,0-4.32.1-8.75,3.06-13.18,8.8l-7.92-6.1c6.36-8.26,13.38-12.53,20.87-12.7,8.43-.16,16.76,4.68,25.37,14.87l-7.64,6.45Z"/>
      <line class="cls-3" x1="69.66" y1="32.02" x2="42.29" y2="4.65"/>
      <circle class="cls-2" cx="80" cy="27.3" r="3.01"/>
      <circle class="cls-2" cx="59.22" cy="27.3" r="3.01"/>
      <path class="cls-2" d="M69.67,48.83c-3.17,0-6.15-1.02-8.38-2.88-2.58-2.15-3.95-5.18-3.95-8.78h4c0,5.29,4.18,7.66,8.33,7.66s8.33-2.37,8.33-7.66h4c0,7.65-6.2,11.66-12.33,11.66Z"/>
    </g>
  </g>
</svg>