<?xml version="1.0" encoding="UTF-8"?>
<svg id="Layer_2" data-name="Layer 2" xmlns="http://www.w3.org/2000/svg" viewBox="0 0 118.77 176.84">
  <defs>
    <style>
      .cls-1 {
        fill: #533ed6;
      }

      .cls-2 {
        fill: #050505;
      }

      .cls-3 {
        fill: none;
        stroke: #533ed6;
        stroke-miterlimit: 10;
        stroke-width: 10px;
      }
    </style>
  </defs>
  <g id="Layer_1-2" data-name="Layer 1">
    <g id="ant_dance2">
      <line class="cls-3" x1="58.29" y1="30.91" x2="85.66" y2="3.54"/>
      <circle class="cls-1" cx="58.85" cy="122.06" r="22.51"/>
      <circle class="cls-1" cx="58.85" cy="77.04" r="22.51"/>
      <circle class="cls-1" cx="58.85" cy="32.02" r="22.51"/>
      <rect class="cls-1" x="67.5" y="140.1" width="10" height="36.74"/>
      <rect class="cls-1" x="18.97" y="145.75" width="30.96" height="10" transform="translate(-94.23 65) rotate(-43.45)"/>
      <path class="cls-1" d="M8.71,123.24c-3.02-13.47-1.87-23.42,3.53-30.41,4.84-6.26,12.89-9.63,23.93-10.01l.35,9.99c-7.92.27-13.43,2.34-16.36,6.13-3.42,4.42-3.98,11.86-1.68,22.11l-9.76,2.19Z"/>
      <path class="cls-1" d="M.63,99.25c-1.67-10.34-.04-18.55,4.84-24.4,5.21-6.25,13.98-9.54,26.07-9.77l.2,10c-9.06.18-15.31,2.26-18.59,6.18-2.94,3.52-3.83,9.04-2.64,16.4l-9.87,1.59Z"/>
      <path class="cls-1" d="M88.8,131.28l-8.73-4.88c12.54-22.4,5.68-30.06-1.7-34.23l4.92-8.71c20.27,11.45,14.19,32.32,5.51,47.82Z"/>
      <path class="cls-1" d="M108.77,96.37c-.14-9.99-2.27-16.67-6.34-19.87-3.4-2.67-8.7-3.19-15.77-1.56l-2.25-9.74c10.15-2.35,18.29-1.19,24.19,3.43,6.66,5.22,9.99,14.25,10.17,27.6l-10,.14Z"/>
      <line class="cls-3" x1="58.84" y1="32.02" x2="31.47" y2="4.65"/>
      <circle class="cls-2" cx="69.18" cy="27.3" r="3.01"/>
      <circle class="cls-2" cx="48.4" cy="27.3" r="3.01"/>
      <path class="cls-2" d="M58.85,48.83c-3.17,0-6.15-1.02-8.38-2.88-2.58-2.15-3.95-5.18-3.95-8.78h4c0,5.29,4.18,7.66,8.33,7.66s8.33-2.37,8.33-7.66h4c0,7.65-6.2,11.66-12.33,11.66Z"/>
    </g>
  </g>
</svg>