<?xml version="1.0" encoding="UTF-8"?>
<svg id="Layer_2" data-name="Layer 2" xmlns="http://www.w3.org/2000/svg" viewBox="0 0 384 388.92">
  <defs>
    <style>
      .cls-1 {
        fill: #f6c7ca;
      }

      .cls-2 {
        fill: #533ed6;
      }

      .cls-3 {
        fill: #eb4125;
      }
    </style>
  </defs>
  <g id="Layer_1-2" data-name="Layer 1">
    <g id="baby_open">
      <path class="cls-1" d="M384,379.24c0,3.25-.08,6.47-.24,9.68H.24c-.16-3.21-.24-6.43-.24-9.68,0-106.04,85.96-192,192-192s192,85.96,192,192Z"/>
      <path class="cls-3" d="M105.81,293.05c-26.22,26.22-37.98,61.52-35.26,95.87h-10.02c-2.7-36.92,10.04-74.77,38.21-102.94l7.07,7.07Z"/>
      <path class="cls-3" d="M323.47,388.92h-10.03c2.72-34.35-9.03-69.65-35.25-95.87l7.07-7.07c28.17,28.17,40.91,66.02,38.21,102.94Z"/>
      <circle class="cls-3" cx="125.35" cy="325.78" r="8.32"/>
      <circle class="cls-3" cx="258.65" cy="325.78" r="8.32"/>
      <ellipse class="cls-1" cx="192" cy="118.34" rx="166.69" ry="118.34"/>
      <rect class="cls-3" x="87.1" y="44.43" width="209.81" height="177.04" rx="88.52" ry="88.52"/>
      <path class="cls-2" d="M175.61,204.47c-39.44,0-71.52-32.08-71.52-71.52s32.08-71.52,71.52-71.52h32.77c39.44,0,71.52,32.08,71.52,71.52s-32.08,71.52-71.52,71.52h-32.77Z"/>
      <circle class="cls-1" cx="39.52" cy="166.58" r="20.66"/>
      <circle class="cls-1" cx="344.48" cy="166.58" r="20.66"/>
      <circle class="cls-2" cx="75.69" cy="44.43" r="11.41"/>
      <circle class="cls-2" cx="308.31" cy="44.43" r="11.41"/>
    </g>
  </g>
</svg>