<?xml version="1.0" encoding="UTF-8"?>
<svg id="Layer_2" data-name="Layer 2" xmlns="http://www.w3.org/2000/svg" viewBox="0 0 358.08 617.2">
  <defs>
    <style>
      .cls-1 {
        fill: #eb4125;
      }

      .cls-2 {
        fill: #f6c744;
      }

      .cls-3 {
        fill: #56bd7e;
      }
    </style>
  </defs>
  <g id="Layer_1-2" data-name="Layer 1">
    <g id="flower_group">
      <rect id="stem" class="cls-3" x="171.09" y="163.32" width="15.91" height="453.88"/>
      <path id="leaf" class="cls-3" d="M179.04,425.68c-15.6,26.99-44.79,45.15-78.21,45.15s-62.61-18.16-78.21-45.15c15.6-26.99,44.79-45.15,78.21-45.15s62.61,18.16,78.21,45.15Z"/>
      <path id="petal1" class="cls-2" d="M179.04,59.51v103.81l-89.91-51.91c-39.21-22.64-39.93-79.39-.94-102.4.56-.33,1.13-.66,1.7-.99,39.66-22.81,89.15,5.74,89.15,51.49Z"/>
      <path id="petal2" class="cls-2" d="M268.95,111.41l-89.91,51.91V59.51c0-45.75,49.49-74.3,89.15-51.49.57.33,1.13.65,1.69.99,39,23,38.28,79.76-.93,102.4Z"/>
      <path id="petal3" class="cls-2" d="M358.08,163.32c0,.33,0,.66,0,.98-.24,45.5-49.76,73.66-89.16,50.91l-89.87-51.89,89.87-51.89c39.41-22.75,88.92,5.4,89.16,50.91,0,.33,0,.66,0,.98Z"/>
      <path id="petal4" class="cls-2" d="M269.88,317.64c-.56.33-1.13.66-1.69.99-39.66,22.81-89.15-5.74-89.15-51.49v-103.81l89.91,51.91c39.21,22.64,39.93,79.4.93,102.4Z"/>
      <path id="petal5" class="cls-2" d="M179.04,163.32v103.81c0,45.75-49.5,74.3-89.15,51.49-.57-.33-1.13-.66-1.7-.99-38.99-23.01-38.27-79.77.94-102.4l89.91-51.91Z"/>
      <path id="petal6" class="cls-2" d="M179.04,163.32l-89.88,51.89C49.76,237.96.25,209.8,0,164.3c0-.33,0-.65,0-.98s0-.65,0-.98c.24-45.5,49.75-73.66,89.16-50.91l89.87,51.89Z"/>
      <circle id="flowerbud" class="cls-1" cx="179.04" cy="161.44" r="41.22"/>
    </g>
  </g>
</svg>