<?xml version="1.0" encoding="UTF-8"?>
<svg id="Layer_2" data-name="Layer 2" xmlns="http://www.w3.org/2000/svg" viewBox="0 0 247.62 144.97">
  <defs>
    <style>
      .cls-1 {
        fill: #2e6bf6;
      }

      .cls-2 {
        fill: #fdf3be;
        stroke: #fdf3be;
        stroke-miterlimit: 10;
        stroke-width: 10px;
      }
    </style>
  </defs>
  <g id="Layer_1-2" data-name="Layer 1">
    <g>
      <path class="cls-2" d="M5,72.49c0,33.74,30.89,67.49,118.81,67.49,87.92,0,118.81-33.74,118.81-67.49,0-33.74-30.89-67.49-118.81-67.49-87.92,0-118.81,33.74-118.81,67.49Z"/>
      <g>
        <path class="cls-1" d="M67.85,60.49h7.68v4.57c1-1.56,2.34-2.83,4.04-3.81s3.58-1.46,5.65-1.46c3.61,0,6.68,1.42,9.2,4.25s3.78,6.78,3.78,11.84-1.27,9.23-3.81,12.11-5.62,4.32-9.23,4.32c-1.72,0-3.28-.34-4.67-1.03s-2.87-1.86-4.41-3.52v15.67h-8.23v-42.95ZM76,75.52c0,3.5.69,6.08,2.08,7.75s3.08,2.51,5.07,2.51,3.51-.77,4.78-2.3,1.9-4.05,1.9-7.54c0-3.26-.65-5.68-1.96-7.27s-2.93-2.37-4.86-2.37-3.68.78-5.01,2.33-1.99,3.85-1.99,6.9Z"/>
        <path class="cls-1" d="M104.74,91.61v-42.95h8.23v42.95h-8.23Z"/>
        <path class="cls-1" d="M127.56,69.99l-7.47-1.35c.84-3.01,2.29-5.23,4.34-6.68s5.1-2.17,9.14-2.17c3.67,0,6.41.43,8.2,1.3s3.06,1.97,3.79,3.31,1.1,3.79,1.1,7.37l-.09,9.61c0,2.73.13,4.75.4,6.05s.76,2.69,1.48,4.18h-8.14c-.21-.55-.48-1.36-.79-2.43-.14-.49-.23-.81-.29-.97-1.41,1.37-2.91,2.39-4.51,3.08s-3.31,1.03-5.13,1.03c-3.2,0-5.73-.87-7.57-2.61s-2.77-3.94-2.77-6.59c0-1.76.42-3.33,1.26-4.7s2.02-2.43,3.53-3.16,3.7-1.37,6.55-1.92c3.85-.72,6.51-1.4,8-2.02v-.82c0-1.58-.39-2.71-1.17-3.38s-2.26-1.01-4.42-1.01c-1.46,0-2.61.29-3.43.86s-1.48,1.59-1.99,3.03ZM138.58,76.67c-1.05.35-2.72.77-5.01,1.26s-3.78.97-4.48,1.44c-1.07.76-1.61,1.73-1.61,2.9s.43,2.15,1.29,2.99,1.95,1.26,3.28,1.26c1.48,0,2.9-.49,4.25-1.46,1-.74,1.65-1.65,1.96-2.72.21-.7.32-2.04.32-4.01v-1.64Z"/>
        <path class="cls-1" d="M150.88,60.49h8.76l7.44,22.09,7.27-22.09h8.53l-10.99,29.94-1.96,5.42c-.72,1.82-1.41,3.2-2.07,4.16s-1.41,1.73-2.26,2.33-1.89,1.06-3.13,1.39-2.64.5-4.2.5-3.13-.17-4.66-.5l-.73-6.45c1.29.25,2.45.38,3.49.38,1.91,0,3.33-.56,4.25-1.69s1.62-2.55,2.11-4.29l-11.84-31.2Z"/>
      </g>
    </g>
  </g>
</svg>