<?xml version="1.0" encoding="UTF-8"?>
<svg id="Layer_2" data-name="Layer 2" xmlns="http://www.w3.org/2000/svg" viewBox="0 0 247.62 144.97">
  <defs>
    <style>
      .cls-1 {
        fill: #2e6bf6;
      }

      .cls-2 {
        fill: #fdf3be;
        stroke: #fdf3be;
        stroke-miterlimit: 10;
        stroke-width: 10px;
      }
    </style>
  </defs>
  <g id="Layer_1-2" data-name="Layer 1">
    <g id="next_active_blue">
      <path class="cls-2" d="M5,72.49c0,33.74,30.89,67.49,118.81,67.49,87.92,0,118.81-33.74,118.81-67.49,0-33.74-30.89-67.49-118.81-67.49-87.92,0-118.81,33.74-118.81,67.49Z"/>
      <g>
        <path class="cls-1" d="M94.73,91.61h-8.23v-15.88c0-3.36-.18-5.53-.53-6.52s-.92-1.75-1.71-2.3-1.74-.82-2.86-.82c-1.43,0-2.71.39-3.84,1.17-1.13.78-1.91,1.82-2.33,3.11s-.63,3.67-.63,7.15v14.09h-8.23v-31.11h7.65v4.57c2.71-3.52,6.13-5.27,10.25-5.27,1.82,0,3.48.33,4.98.98,1.5.65,2.64,1.49,3.41,2.5s1.31,2.17,1.61,3.46.45,3.13.45,5.54v19.34Z"/>
        <path class="cls-1" d="M121.1,81.7l8.2,1.38c-1.05,3.01-2.72,5.3-5,6.87s-5.12,2.36-8.54,2.36c-5.41,0-9.42-1.77-12.01-5.3-2.05-2.83-3.08-6.41-3.08-10.72,0-5.16,1.35-9.19,4.04-12.11s6.1-4.38,10.22-4.38c4.63,0,8.28,1.53,10.96,4.59s3.96,7.74,3.84,14.05h-20.62c.06,2.44.72,4.34,1.99,5.7,1.27,1.36,2.85,2.04,4.75,2.04,1.29,0,2.37-.35,3.25-1.05s1.54-1.84,1.99-3.4ZM121.57,73.38c-.06-2.38-.67-4.19-1.85-5.43s-2.6-1.86-4.28-1.86c-1.8,0-3.28.65-4.45,1.96s-1.75,3.09-1.73,5.33h12.3Z"/>
        <path class="cls-1" d="M132.5,91.61l11.22-16.03-10.75-15.09h10.05l5.51,8.55,5.8-8.55h9.67l-10.55,14.74,11.51,16.38h-10.11l-6.33-9.64-6.39,9.64h-9.64Z"/>
        <path class="cls-1" d="M184.09,60.49v6.56h-5.62v12.54c0,2.54.05,4.02.16,4.44s.35.77.73,1.04.84.41,1.39.41c.76,0,1.87-.26,3.31-.79l.7,6.39c-1.91.82-4.08,1.23-6.5,1.23-1.48,0-2.82-.25-4.01-.75s-2.07-1.14-2.62-1.93-.94-1.86-1.16-3.21c-.18-.96-.26-2.89-.26-5.8v-13.56h-3.78v-6.56h3.78v-6.18l8.26-4.8v10.99h5.62Z"/>
      </g>
    </g>
  </g>
</svg>